<?xml version="1.0" encoding="utf-8"?>
<!-- Generator: Adobe Illustrator 21.0.0, SVG Export Plug-In . SVG Version: 6.00 Build 0)  -->
<svg version="1.1" id="Layer_1" xmlns="http://www.w3.org/2000/svg" xmlns:xlink="http://www.w3.org/1999/xlink" x="0px" y="0px"
	 viewBox="0 0 665 970" style="enable-background:new 0 0 665 970;" xml:space="preserve">
<style type="text/css">
	.st0{opacity:0.102;fill:#FAFCFE;enable-background:new    ;}
</style>
<path id="headerPattern-co" class="st0" d="M538.5,131.3c-4.3,6.5-9.1,12.9-14.4,19.2c-8.7,10.3-11,23.5-6.5,36.1
	c2.8,7.7,5.1,15.3,6.8,23c1.2,5.1-0.2,9.9-3.8,13.6c-8.2,8.3-17.5,14.9-27.9,19.6c-4.7,2.1-9.6,1.8-13.9-1
	c-6.8-4.4-13.4-9.3-19.8-14.6c-10.1-8.5-22.9-10.8-35.3-6.4c-7.8,2.8-15.7,5.1-23.6,6.8c-5,1.1-9.8-0.3-13.4-3.9
	c-8.1-8.1-14.5-17.5-19.3-28.1c-2.1-4.7-1.7-9.8,1.1-14.1c4.3-6.5,9.1-12.9,14.4-19.2c8.7-10.3,11-23.5,6.5-36.1
	c-2.8-7.7-5.1-15.3-6.8-23c-1.2-5.1,0.2-9.9,3.8-13.6c8.2-8.3,17.5-14.9,27.9-19.6c4.7-2.1,9.6-1.8,13.9,1
	c6.8,4.4,13.4,9.3,19.8,14.6c10.1,8.5,22.9,10.8,35.3,6.4c7.8-2.8,15.7-5.1,23.6-6.8c5-1.1,9.8,0.3,13.4,3.9
	c8.1,8.1,14.5,17.5,19.3,28.1C541.8,121.9,541.4,126.9,538.5,131.3z M384.2,372.1c0.1-4,0.4-8,0.9-11.9c0.4-2.5,1.8-4.4,4.1-5.4
	c5.1-2.3,10.4-3.6,16.1-3.9c2.5-0.2,4.7,0.9,6.2,2.9c2.2,3.1,4.3,6.3,6.3,9.8c3.2,5.7,8.8,9,15.3,9.1c4,0,7.8,0.3,11.6,0.8
	c2.5,0.3,4.5,1.8,5.5,4.1c2.4,5.1,3.8,10.5,4.2,16c0.2,2.5-0.8,4.7-2.8,6.1c-3.2,2.3-6.5,4.5-10,6.5c-5.6,3.1-8.8,8.5-8.9,14.9
	c-0.1,4-0.4,8-0.9,11.9c-0.4,2.5-1.8,4.4-4.1,5.4c-5.1,2.3-10.4,3.6-16.1,3.9c-2.5,0.2-4.7-0.9-6.2-2.9c-2.2-3.1-4.3-6.3-6.3-9.8
	c-3.2-5.7-8.8-9-15.3-9.1c-4,0-7.8-0.3-11.6-0.8c-2.5-0.3-4.5-1.8-5.5-4.1c-2.4-5.1-3.8-10.5-4.2-16c-0.2-2.5,0.8-4.7,2.8-6.1
	c3.2-2.3,6.5-4.5,10-6.5C380.8,383.9,384.1,378.5,384.2,372.1z M328,569.3c-5.3,2.7-10.8,5.1-16.5,7.1c-9.1,3.3-15.2,10.5-16.9,20
	c-1.1,5.9-2.5,11.8-4.3,17.4c-1.1,3.6-3.8,6.1-7.4,7.1c-8.1,2.1-16.4,2.8-24.9,1.9c-3.8-0.4-6.8-2.5-8.5-5.9
	c-2.6-5.1-4.9-10.5-6.9-16.1c-3.4-9.2-10.9-15.6-20.5-17.3c-5.9-1-11.6-2.4-17.1-4.1c-3.6-1.1-6.2-3.8-7.2-7.4
	c-2.3-8.2-3-16.5-2.3-24.8c0.3-3.7,2.4-6.7,5.7-8.4c5.3-2.7,10.8-5.1,16.5-7.1c9.1-3.3,15.2-10.5,16.9-20c1.1-5.9,2.5-11.8,4.3-17.4
	c1.1-3.6,3.8-6.1,7.4-7c8.1-2.1,16.4-2.8,24.9-1.9c3.8,0.4,6.8,2.5,8.5,5.9c2.6,5.1,4.9,10.5,6.9,16.1c3.4,9.2,10.9,15.6,20.5,17.3
	c5.9,1,11.6,2.4,17.1,4.1c3.6,1.1,6.2,3.8,7.2,7.4c2.3,8.2,3.1,16.5,2.3,24.8C333.4,564.6,331.3,567.6,328,569.3z M282.1,298.5
	c-8.7,10.3-11,23.5-6.5,36.1c2.8,7.7,5.1,15.3,6.8,23c1.2,5.1-0.2,9.9-3.8,13.6c-8.2,8.3-17.5,14.9-27.9,19.6
	c-4.7,2.1-9.6,1.8-13.9-1c-6.8-4.4-13.4-9.3-19.8-14.6c-10.1-8.5-22.9-10.8-35.3-6.4c-7.8,2.8-15.7,5.1-23.6,6.8
	c-5,1.1-9.8-0.3-13.4-3.9c-8.1-8.1-14.5-17.5-19.3-28.1c-2.1-4.7-1.7-9.8,1.1-14.1c4.3-6.5,9.1-12.9,14.4-19.2
	c8.7-10.3,11-23.5,6.5-36.1c-2.8-7.7-5.1-15.3-6.8-23c-1.2-5.1,0.2-9.9,3.8-13.6c8.2-8.3,17.5-14.9,27.9-19.6
	c4.7-2.1,9.6-1.8,13.9,1c6.8,4.4,13.4,9.3,19.8,14.6c10.1,8.5,22.9,10.8,35.3,6.4c7.8-2.8,15.7-5.1,23.6-6.8c5-1.1,9.8,0.3,13.4,3.9
	c8.1,8.2,14.5,17.5,19.3,28.1c2.1,4.7,1.7,9.8-1.1,14.1C292.2,285.8,287.4,292.2,282.1,298.5z M256.8,88.9c-1.6,1.9-3.9,2.7-6.3,2.3
	c-3.9-0.6-7.8-1.4-11.7-2.5c-6.2-1.7-12.3-0.2-16.9,4.2c-2.9,2.8-5.9,5.4-9.1,7.7c-2,1.5-4.4,1.8-6.7,0.9c-5.2-2-9.9-4.9-14.1-8.6
	c-1.9-1.7-2.7-4-2.3-6.5c0.6-3.7,1.4-7.5,2.5-11.3c1.8-6.3,0.2-12.6-4.4-17.3c-2.8-2.8-5.3-5.8-7.6-8.8c-1.5-2-1.9-4.4-1-6.8
	c1.9-5.3,4.7-10.1,8.4-14.3c1.6-1.9,3.9-2.7,6.3-2.3c3.9,0.6,7.8,1.4,11.7,2.5c6.2,1.7,12.3,0.2,16.9-4.2c2.9-2.8,5.9-5.4,9.1-7.7
	c2-1.5,4.4-1.8,6.7-0.9c5.2,2,9.9,4.8,14.2,8.6c1.9,1.7,2.7,4,2.3,6.5c-0.6,3.7-1.4,7.5-2.5,11.3c-1.8,6.3-0.2,12.6,4.4,17.3
	c2.8,2.8,5.3,5.8,7.6,8.8c1.5,2,1.9,4.4,1,6.8C263.2,80,260.4,84.7,256.8,88.9z"/>
<path id="headerPattern-co_1_" class="st0" d="M465.8,848.8c2.5,3.1,4.9,6.3,7,9.7c1.3,2.1,1.5,4.5,0.4,6.8c-2.4,5-5.7,9.5-9.7,13.4
	c-1.8,1.7-4.2,2.4-6.6,1.8c-3.7-0.9-7.4-2.1-11.1-3.4c-6.1-2.3-12.5-1.2-17.6,2.9c-3.1,2.5-6.2,4.8-9.4,6.8
	c-2.1,1.4-4.6,1.5-6.9,0.5c-5.1-2.4-9.6-5.5-13.5-9.5c-1.7-1.8-2.4-4.1-1.8-6.5c0.9-3.8,2.1-7.6,3.5-11.4c2.2-6,1.2-12.2-2.8-17.2
	c-2.5-3.1-4.9-6.3-7-9.7c-1.3-2.1-1.4-4.5-0.4-6.8c2.4-5,5.7-9.5,9.7-13.4c1.8-1.7,4.2-2.4,6.6-1.8c3.7,0.9,7.4,2.1,11.1,3.4
	c6.1,2.3,12.5,1.2,17.6-2.9c3.1-2.5,6.2-4.8,9.4-6.8c2.1-1.4,4.6-1.5,6.9-0.5c5.1,2.4,9.6,5.5,13.5,9.5c1.7,1.8,2.4,4.1,1.8,6.5
	c-0.9,3.8-2.1,7.6-3.5,11.4C460.8,837.7,461.8,843.9,465.8,848.8z M381.4,662c2.3-5.5,5-10.9,8-16.1c4.8-8.4,4.8-17.8,0-26.2
	c-3-5.2-5.7-10.6-8-16.1c-1.4-3.4-1-7.1,1.1-10.2c4.8-6.9,10.7-12.7,17.8-17.5c3.1-2.1,6.8-2.5,10.3-1c5.3,2.2,10.5,4.9,15.7,7.8
	c8.5,4.9,18.3,4.9,26.9-0.1c5.2-3,10.4-5.6,15.7-7.9c3.5-1.5,7.2-1.1,10.3,1c7,4.8,13,10.6,17.8,17.5c2.1,3.1,2.5,6.7,1.1,10.1
	c-2.3,5.5-5,10.9-8,16.1c-4.8,8.4-4.8,17.8,0,26.2c3,5.2,5.7,10.6,8,16.1c1.4,3.4,1.1,7.1-1.1,10.1c-4.8,6.9-10.7,12.7-17.8,17.5
	c-3.1,2.1-6.8,2.5-10.3,1c-5.3-2.2-10.5-4.9-15.7-7.8c-8.5-4.9-18.3-4.9-26.9,0.1c-5.2,3-10.4,5.6-15.7,7.9c-3.5,1.5-7.2,1.1-10.3-1
	c-7-4.8-13-10.6-17.8-17.5C380.3,669.1,379.9,665.5,381.4,662z M259,771.6c-7.6-1.9-15,0.2-20.5,5.8c-3.3,3.4-6.7,6.5-10.2,9.4
	c-2.3,1.9-5.2,2.4-8.1,1.5c-6.4-2.2-12.2-5.3-17.3-9.6c-2.3-1.9-3.4-4.6-3-7.5c0.6-4.7,1.4-9.4,2.6-14c1.9-7.4-0.2-14.7-5.6-20
	c-3.4-3.4-6.6-6.9-9.5-10.6c-1.8-2.3-2.3-5.2-1.4-8c2.2-6.3,5.5-12,9.8-17.2c1.9-2.3,4.7-3.4,7.6-3c4.5,0.6,9,1.5,13.6,2.6
	c7.6,1.9,15-0.2,20.5-5.8c3.3-3.4,6.7-6.5,10.2-9.4c2.3-1.9,5.2-2.4,8.1-1.5c6.4,2.2,12.2,5.3,17.3,9.6c2.3,1.9,3.4,4.6,3,7.5
	c-0.6,4.7-1.4,9.4-2.6,14c-1.9,7.4,0.2,14.7,5.6,20c3.4,3.4,6.6,6.9,9.5,10.6c1.8,2.3,2.3,5.2,1.4,8c-2.2,6.3-5.4,12-9.8,17.2
	c-1.9,2.3-4.7,3.4-7.6,3C268.2,773.6,263.6,772.7,259,771.6z M217.7,908.4c0-2.5,1.2-4.6,3.3-5.9c3.4-2,6.9-3.9,10.5-5.6
	c5.8-2.7,9.5-7.8,10.1-14.1c0.4-4,1-7.9,1.9-11.7c0.6-2.4,2.2-4.2,4.5-5.1c5.3-1.8,10.7-2.7,16.3-2.6c2.5,0.1,4.6,1.3,6,3.4
	c2,3.2,3.8,6.7,5.4,10.3c2.7,5.9,8,9.7,14.5,10.4c3.9,0.4,7.8,1,11.5,1.8c2.5,0.5,4.3,2.2,5.2,4.5c1.9,5.3,2.9,10.7,2.8,16.3
	c0,2.5-1.2,4.6-3.3,5.9c-3.4,2.1-6.9,3.9-10.5,5.6c-5.8,2.7-9.5,7.8-10.1,14.1c-0.4,4-1,7.9-1.9,11.7c-0.6,2.4-2.2,4.2-4.5,5
	c-5.3,1.8-10.7,2.7-16.4,2.6c-2.5-0.1-4.6-1.3-6-3.4c-2-3.2-3.8-6.7-5.4-10.3c-2.7-5.9-8-9.7-14.5-10.4c-3.9-0.4-7.8-1-11.5-1.8
	c-2.5-0.5-4.3-2.2-5.2-4.5C218.5,919.4,217.6,913.9,217.7,908.4z"/>
</svg>
