<?xml version="1.0" encoding="utf-8"?>
<!-- Generator: Adobe Illustrator 21.0.0, SVG Export Plug-In . SVG Version: 6.00 Build 0)  -->
<svg version="1.1" id="Layer_1" xmlns="http://www.w3.org/2000/svg" xmlns:xlink="http://www.w3.org/1999/xlink" x="0px" y="0px"
	 viewBox="0 0 70 70" style="enable-background:new 0 0 70 70;" xml:space="preserve">
<style type="text/css">
	.st0{fill:#3BD1DF;}
</style>
<path id="logo" class="st0" d="M25.2,54.5c1.8-0.8,3.7-1.7,5.4-2.7c2.8-1.6,6-1.6,8.8,0c1.8,1,3.6,1.9,5.4,2.7
	c1.2,0.5,2.4,0.4,3.4-0.4c2.3-1.6,4.3-3.6,5.9-5.9c0.7-1,0.8-2.3,0.3-3.5c-0.8-1.8-1.6-3.5-2.6-5.2c-1.7-2.9-1.7-6.1,0-9
	c1-1.7,1.9-3.5,2.6-5.2c0.5-1.2,0.4-2.4-0.3-3.5c-1.6-2.4-3.6-4.3-5.9-5.9c-1-0.7-2.3-0.8-3.4-0.4c-1.8,0.8-3.7,1.7-5.4,2.7
	c-2.8,1.6-6,1.6-8.8,0c-1.8-1-3.6-1.9-5.4-2.7c-1.2-0.5-2.4-0.4-3.4,0.4c-2.3,1.6-4.3,3.6-5.9,5.9c-0.7,1-0.8,2.3-0.3,3.5
	c0.8,1.8,1.6,3.5,2.6,5.2c1.7,2.9,1.7,6.1,0,9c-1,1.7-1.9,3.5-2.6,5.2c-0.5,1.2-0.4,2.4,0.3,3.5c1.6,2.3,3.6,4.3,5.9,5.9
	C22.8,54.9,24,55,25.2,54.5z"/>
</svg>
