<svg version="1.1" xmlns="http://www.w3.org/2000/svg" xmlns:xlink="http://www.w3.org/1999/xlink" width="399" height="326" viewBox="0 0 399 326">
<path id="headerPattern-co" d="M395.249,57.765 C391.498,60.867 387.530,63.790 383.356,66.471 C376.707,70.746 373.098,77.654 373.387,85.555 C373.571,90.515 373.465,95.434 373.034,100.294 C372.768,103.353 371.087,105.849 368.386,107.280 C362.293,110.447 355.782,112.461 348.887,113.298 C345.809,113.666 343.006,112.533 341.043,110.130 C338.099,106.504 335.319,102.608 332.701,98.485 C328.398,91.683 321.303,87.974 313.263,88.325 C308.394,88.555 303.618,88.479 298.944,88.123 C295.851,87.883 293.320,86.227 291.865,83.490 C288.606,77.323 286.532,70.842 285.678,64.022 C285.293,60.978 286.390,58.198 288.748,56.233 C292.499,53.131 296.467,50.208 300.642,47.527 C307.291,43.252 310.899,36.345 310.610,28.443 C310.427,23.484 310.533,18.565 310.963,13.704 C311.229,10.645 312.884,8.157 315.602,6.735 C321.704,3.551 328.189,1.545 335.111,0.700 C338.188,0.332 340.992,1.465 342.954,3.868 C345.898,7.494 348.679,11.390 351.297,15.513 C355.600,22.315 362.695,26.024 370.734,25.674 C375.604,25.443 380.379,25.519 385.054,25.875 C388.146,26.115 390.677,27.771 392.132,30.508 C395.391,36.676 397.465,43.156 398.319,49.976 C398.704,53.020 397.607,55.800 395.249,57.765 zM219.424,293.479 C214.505,298.691 207.872,300.829 200.844,299.479 C189.707,297.295 178.574,294.452 167.569,290.876 C150.035,285.188 132.248,288.907 118.431,301.149 C109.761,308.837 100.737,315.941 91.338,322.371 C85.430,326.426 78.444,327.088 71.873,324.325 C57.159,318.000 43.903,309.208 32.202,297.977 C26.990,292.955 24.888,286.203 26.319,279.088 C28.505,268.384 31.419,257.575 34.981,246.725 C40.883,228.852 37.082,210.516 24.569,196.492 C16.955,188.025 10.033,179.272 3.766,170.288 C-0.373,164.338 -1.128,157.304 1.656,150.612 C7.957,135.570 16.574,122.205 27.607,110.544 C32.525,105.333 39.158,103.194 46.187,104.545 C57.324,106.730 68.457,109.573 79.462,113.148 C96.996,118.836 114.782,115.118 128.600,102.875 C137.270,95.187 146.294,88.083 155.693,81.653 C161.600,77.597 168.532,76.901 175.113,79.708 C189.872,86.023 203.074,94.780 214.829,106.048 C220.041,111.068 222.143,117.820 220.712,124.935 C218.526,135.639 215.612,146.448 212.050,157.299 C206.148,175.172 209.948,193.509 222.462,207.531 C230.075,215.999 236.997,224.752 243.264,233.735 C247.403,239.686 248.159,246.719 245.375,253.412 C239.073,268.455 230.456,281.819 219.424,293.479 z" fill="#FAFCFE" opacity="0.102" />
</svg>
