<?xml version="1.0" encoding="utf-8"?>
<!-- Generator: Adobe Illustrator 21.0.0, SVG Export Plug-In . SVG Version: 6.00 Build 0)  -->
<svg version="1.1" id="Layer_1" xmlns="http://www.w3.org/2000/svg" xmlns:xlink="http://www.w3.org/1999/xlink" x="0px" y="0px"
	 viewBox="0 0 20 40" style="enable-background:new 0 0 20 40;" xml:space="preserve">
<style type="text/css">
	.st0{fill:#4ED6E2;}
</style>
<path id="sortAll" class="st0" d="M13,16.9h-3H7c-0.5,0-0.9-0.3-1.2-0.7c-0.2-0.5-0.2-1,0.1-1.4L7.2,13l1.7-2.4
	C9.2,10.2,9.6,10,10,10s0.8,0.2,1.1,0.6l1.7,2.4l1.3,1.8c0.3,0.4,0.3,0.9,0.1,1.4C14,16.7,13.5,16.9,13,16.9z M7,24.1h3h3
	c0.5,0,0.9,0.3,1.2,0.7c0.2,0.5,0.2,1-0.1,1.4L12.8,28l-1.7,2.4C10.8,30.8,10.4,31,10,31c-0.4,0-0.8-0.2-1.1-0.6L7.2,28l-1.3-1.8
	c-0.3-0.4-0.3-0.9-0.1-1.4C6,24.3,6.5,24.1,7,24.1z"/>
</svg>
