<?xml version="1.0" encoding="utf-8"?>
<!-- Generator: Adobe Illustrator 21.0.0, SVG Export Plug-In . SVG Version: 6.00 Build 0)  -->
<svg version="1.1" id="Layer_1" xmlns="http://www.w3.org/2000/svg" xmlns:xlink="http://www.w3.org/1999/xlink" x="0px" y="0px"
	 viewBox="0 0 928 1016" style="enable-background:new 0 0 928 1016;" xml:space="preserve">
<style type="text/css">
	.st0{opacity:0.7;fill:#FAFCFE;}
</style>
<path id="headerPattern-co" class="st0" d="M927.4,506.3c-2.7,8.8-6.8,16.9-12.3,24.1c-2.5,3.2-6.1,4.8-10.2,4.5
	c-6.4-0.6-12.9-1.5-19.3-2.9c-10.2-2.2-20.1,1-27.2,8.7c-4.5,4.8-9.1,9.4-14.1,13.5c-3.1,2.6-7,3.4-10.9,2.2
	c-8.7-2.7-16.7-6.9-24-12.5c-3.2-2.5-4.8-6.2-4.4-10.3c0.6-6.2,1.6-12.4,3-18.7c2.3-10.4-0.9-20.5-8.8-27.7
	c-4.8-4.3-9.2-8.8-13.3-13.5c-2.7-3.1-3.5-7-2.3-11c2.7-8.8,6.8-16.9,12.3-24.1c2.5-3.2,6.1-4.8,10.2-4.5c6.4,0.6,12.9,1.5,19.3,2.9
	c10.2,2.2,20.1-1,27.2-8.7c4.5-4.8,9.1-9.4,14.1-13.5c3.1-2.6,7-3.4,10.9-2.2c8.7,2.7,16.7,6.8,24,12.5c3.2,2.5,4.8,6.2,4.4,10.3
	c-0.6,6.2-1.6,12.4-3,18.7c-2.3,10.4,0.9,20.5,8.8,27.7c4.8,4.3,9.2,8.8,13.3,13.5C927.7,498.4,928.6,502.4,927.4,506.3z
	 M832.6,170.7c-10.5,6.7-21.7,12.9-33.4,18.6c-19.3,9.3-31.3,27-32.9,48.4c-0.9,13-2.6,25.6-5,37.9c-1.6,8.1-6.8,14.3-14.4,17.3
	c-17.3,6.8-35.1,10.3-53.4,10.5c-8.2,0.1-15.2-3.7-19.6-10.5c-7-10.9-13.5-22.3-19.3-34.2c-9.2-18.9-26.4-30.6-47.3-32.2
	c-13.2-1-26.1-2.8-38.8-5.4c-8-1.6-14.1-6.8-17-14.4c-6.5-17.1-9.8-35-9.9-53.5c0-8.3,3.8-15.4,10.8-19.8
	c10.5-6.7,21.7-12.9,33.4-18.6c19.3-9.3,31.3-27,32.9-48.4c0.9-13,2.6-25.6,5-37.9c1.6-8.1,6.8-14.3,14.4-17.3
	c17.3-6.8,35.1-10.3,53.4-10.5c8.2-0.1,15.2,3.7,19.6,10.5c7,10.9,13.5,22.3,19.3,34.2c9.2,18.9,26.4,30.6,47.3,32.2
	c13.2,1,26.1,2.8,38.8,5.4c8,1.6,14.1,6.8,17,14.4c6.5,17.1,9.8,34.9,9.9,53.5C843.4,159.1,839.6,166.2,832.6,170.7z M555,673.5
	c17.9,1.6,35.9,4.2,53.7,8c28.5,6,55.9-2.7,75.6-24.1c12.4-13.5,25.4-26.1,39.2-37.7c8.6-7.3,19.4-9.5,30.2-6.2
	c24.2,7.5,46.4,19,66.8,34.8c9,7,13.4,17.2,12.3,28.6c-1.7,17.1-4.5,34.5-8.3,52.1c-6.4,29,2.6,57.1,24.6,77
	c13.4,12,25.7,24.6,37,37.6c7.5,8.6,9.8,19.5,6.5,30.5c-7.5,24.6-18.8,46.9-34.3,67c-6.9,9-17,13.4-28.2,12.4
	c-17.9-1.6-35.9-4.2-53.7-8c-28.5-6-55.9,2.7-75.6,24.1c-12.4,13.5-25.4,26.1-39.2,37.7c-8.6,7.3-19.5,9.5-30.3,6.2
	c-24.2-7.5-46.5-19.1-66.7-34.8c-9-7-13.4-17.2-12.3-28.6c1.7-17.1,4.5-34.5,8.3-52.1c6.4-29-2.6-57.1-24.6-77
	c-13.4-12-25.7-24.6-37-37.6c-7.5-8.6-9.8-19.5-6.5-30.5c7.5-24.6,18.8-46.9,34.3-67C533.6,677,543.7,672.5,555,673.5z M404,490.3
	c-22.2,26.3-28.2,60-16.5,92.4c7.1,19.6,12.9,39.2,17.5,58.7c3,12.9-0.5,25.4-9.8,34.8c-20.9,21.2-44.6,38-71.2,50.2
	c-11.9,5.5-24.6,4.6-35.6-2.6c-17.4-11.3-34.3-23.8-50.6-37.4c-25.9-21.7-58.5-27.6-90.3-16.2c-19.9,7.1-40.1,13-60.4,17.4
	c-12.8,2.8-25.1-0.8-34.3-10c-20.6-20.8-37.1-44.8-49.3-71.9c-5.4-12.1-4.4-25,2.9-36.1c11-16.7,23.3-33,36.7-49
	c22.2-26.3,28.2-60,16.5-92.4c-7.1-19.6-12.9-39.2-17.5-58.7c-3-12.9,0.5-25.4,9.8-34.8c20.9-21.2,44.6-38,71.2-50.2
	c11.9-5.5,24.6-4.6,35.6,2.6c17.4,11.3,34.3,23.8,50.6,37.4c25.9,21.7,58.5,27.6,90.3,16.2c19.9-7.1,40.1-13,60.4-17.4
	c12.8-2.8,25,0.7,34.2,10c20.7,20.8,37.2,44.7,49.4,71.9c5.4,12.1,4.4,25-2.9,36.1C429.7,458,417.4,474.3,404,490.3z"/>
</svg>
