<?xml version="1.0" encoding="utf-8"?>
<!-- Generator: Adobe Illustrator 21.0.0, SVG Export Plug-In . SVG Version: 6.00 Build 0)  -->
<svg version="1.1" id="Layer_1" xmlns="http://www.w3.org/2000/svg" xmlns:xlink="http://www.w3.org/1999/xlink" x="0px" y="0px"
	 viewBox="0 0 50 50" style="enable-background:new 0 0 50 50;" xml:space="preserve">
<style type="text/css">
	.st0{fill:#DFE8F1;}
</style>
<path id="userIconSmal" class="st0" d="M39.7,44.5c-4.2,2.5-9.1,4-14.5,4c-5.2,0-10-1.3-14.2-3.9c-0.2-0.8-0.3-1.9-0.3-2.9
	c0-4.4,2-8.4,5.1-11.1c1-0.8,2.4-1,3.5-0.3c1.9,1,3.9,1.7,6.1,1.7s4.2-0.7,6.1-1.7c1.2-0.7,2.5-0.5,3.5,0.3c3,2.7,5.1,6.7,5.1,11.1
	C40,42.8,39.8,43.7,39.7,44.5z M25.3,28.7c-4.7,0-8.6-3.9-8.6-8.6s3.9-8.6,8.6-8.6s8.6,3.9,8.6,8.6S30,28.7,25.3,28.7z"/>
</svg>
