<?xml version="1.0" encoding="utf-8"?>
<!-- Generator: Adobe Illustrator 21.0.0, SVG Export Plug-In . SVG Version: 6.00 Build 0)  -->
<svg version="1.1" id="Layer_1" xmlns="http://www.w3.org/2000/svg" xmlns:xlink="http://www.w3.org/1999/xlink" x="0px" y="0px"
	 viewBox="0 0 28 28" style="enable-background:new 0 0 28 28;" xml:space="preserve">
<style type="text/css">
	.st0{fill:#DFE8F1;}
</style>
<path id="userIconSmal" class="st0" d="M22.5,24.6C20,26.1,17.1,27,13.9,27c-3.1,0-5.9-0.8-8.4-2.3c-0.1-0.5-0.2-1.1-0.2-1.7
	c0-2.6,1.2-5,3-6.6c0.6-0.5,1.4-0.6,2.1-0.2c1.1,0.6,2.3,1,3.6,1s2.5-0.4,3.6-1c0.7-0.4,1.5-0.3,2.1,0.2c1.8,1.6,3,4,3,6.6
	C22.7,23.6,22.6,24.1,22.5,24.6z M14,15.2c-2.8,0-5.1-2.3-5.1-5.1S11.2,5,14,5c2.8,0,5.1,2.3,5.1,5.1S16.8,15.2,14,15.2z"/>
</svg>
