<svg version="1.1" xmlns="http://www.w3.org/2000/svg" xmlns:xlink="http://www.w3.org/1999/xlink" width="118" height="143" viewBox="0 0 118 143">
<g id="Group-1">
<path id="Shape-1" d="M116.548,116.631 C116.548,116.631 35.179,142.736 35.179,142.736 C34.971,142.803 34.756,142.836 34.541,142.836 C34.212,142.836 33.885,142.758 33.587,142.605 C33.095,142.352 32.722,141.914 32.554,141.387 C32.554,141.387 0.097,40.309 0.097,40.309 C-0.073,39.782 -0.026,39.209 0.227,38.717 C0.480,38.225 0.919,37.853 1.446,37.684 C1.446,37.684 20.256,31.650 20.256,31.650 C20.018,29.964 20.306,28.247 21.104,26.696 C22.124,24.716 23.846,23.253 25.956,22.575 C25.956,22.575 27.030,22.231 27.030,22.231 C27.844,21.969 28.338,21.276 28.319,20.422 C28.202,15.155 31.628,10.352 36.652,8.740 C41.671,7.130 47.256,9.041 50.229,13.393 C50.709,14.098 51.511,14.376 52.329,14.114 C52.329,14.114 53.404,13.769 53.404,13.769 C55.516,13.090 57.770,13.279 59.749,14.298 C61.301,15.095 62.535,16.324 63.323,17.833 C63.323,17.833 82.815,11.579 82.815,11.579 C83.342,11.410 83.914,11.456 84.407,11.710 C84.899,11.963 85.272,12.401 85.440,12.928 C85.440,12.928 117.898,114.006 117.898,114.006 C118.251,115.104 117.646,116.279 116.548,116.631 zM62.555,28.769 C62.555,28.769 60.207,21.454 60.207,21.454 C60.185,21.387 60.194,21.320 60.184,21.253 C60.156,21.188 60.121,21.126 60.099,21.058 C60.099,21.058 59.896,20.422 59.896,20.422 C59.560,19.375 58.830,18.518 57.840,18.010 C56.851,17.502 55.732,17.407 54.680,17.743 C54.680,17.743 53.606,18.088 53.606,18.088 C51.044,18.910 48.299,17.970 46.781,15.746 C44.842,12.910 41.201,11.659 37.928,12.713 C34.651,13.764 32.417,16.897 32.494,20.330 C32.554,23.021 30.870,25.381 28.305,26.205 C28.305,26.205 27.231,26.549 27.231,26.549 C26.183,26.885 25.326,27.615 24.817,28.604 C24.319,29.573 24.224,30.668 24.536,31.697 C24.544,31.719 24.562,31.733 24.569,31.756 C24.569,31.756 26.943,39.150 26.943,39.150 C26.944,39.151 26.944,39.152 26.945,39.153 C26.945,39.153 27.706,41.524 27.706,41.524 L63.013,30.196 L62.555,28.769 zM86.416,100.489 C86.313,100.173 86.340,99.828 86.492,99.531 C86.643,99.235 86.907,99.011 87.223,98.909 C87.223,98.909 100.486,94.654 100.486,94.654 L77.842,24.138 L65.020,28.252 C65.020,28.252 65.781,30.624 65.781,30.624 C65.832,30.783 65.850,30.949 65.836,31.112 C65.825,31.234 65.781,31.347 65.737,31.459 C65.722,31.498 65.722,31.541 65.703,31.579 C65.686,31.612 65.655,31.633 65.635,31.664 C65.568,31.771 65.498,31.875 65.401,31.958 C65.276,32.064 65.131,32.147 64.972,32.198 C64.972,32.198 27.279,44.291 27.279,44.291 C27.154,44.331 27.025,44.350 26.896,44.350 C26.879,44.350 26.865,44.340 26.849,44.339 C26.667,44.332 26.488,44.296 26.324,44.212 C26.027,44.060 25.804,43.798 25.704,43.481 C25.704,43.481 24.942,41.110 24.942,41.110 L12.802,45.005 L40.152,130.177 L90.794,113.930 C90.794,113.930 86.416,100.489 86.416,100.489 zM92.623,111.456 L99.602,97.568 L89.187,100.909 L92.623,111.456 zM82.103,16.191 L63.104,22.286 L64.254,25.868 C64.254,25.868 78.269,21.372 78.269,21.372 C78.935,21.160 79.635,21.524 79.844,22.181 C79.844,22.181 103.254,95.081 103.254,95.081 C103.371,95.445 103.300,95.814 103.113,96.115 C103.101,96.144 103.103,96.175 103.089,96.204 C103.089,96.204 93.493,115.300 93.493,115.300 C93.492,115.301 93.491,115.302 93.490,115.304 C93.490,115.305 93.490,115.307 93.489,115.308 C93.486,115.314 93.480,115.318 93.477,115.324 C93.409,115.452 93.319,115.558 93.218,115.651 C93.189,115.678 93.159,115.700 93.128,115.724 C93.031,115.798 92.926,115.857 92.812,115.900 C92.792,115.907 92.778,115.924 92.758,115.930 C92.758,115.930 39.725,132.944 39.725,132.944 C39.600,132.984 39.471,133.004 39.342,133.004 C39.145,133.004 38.948,132.957 38.770,132.865 C38.473,132.714 38.250,132.451 38.150,132.134 C38.150,132.134 10.035,44.577 10.035,44.577 C9.933,44.261 9.962,43.918 10.112,43.622 C10.265,43.327 10.528,43.105 10.844,43.003 C10.844,43.003 24.177,38.725 24.177,38.725 L23.027,35.144 L4.710,41.020 L35.891,138.124 L113.284,113.295 L82.103,16.191 zM39.082,102.538 C38.870,101.880 39.233,101.175 39.891,100.963 C39.891,100.963 70.619,91.105 70.619,91.105 C71.284,90.896 71.985,91.257 72.195,91.915 C72.407,92.573 72.044,93.278 71.386,93.489 C71.386,93.489 40.657,103.348 40.657,103.348 C40.530,103.388 40.401,103.407 40.274,103.407 C39.744,103.407 39.252,103.069 39.082,102.538 zM38.229,97.035 C37.699,97.035 37.206,96.697 37.037,96.165 C36.825,95.507 37.187,94.802 37.845,94.591 C37.845,94.591 86.348,79.030 86.348,79.030 C87.014,78.820 87.713,79.182 87.923,79.840 C88.135,80.498 87.773,81.203 87.115,81.414 C87.115,81.414 38.612,96.975 38.612,96.975 C38.484,97.016 38.355,97.035 38.229,97.035 zM85.069,75.043 C85.069,75.043 36.565,90.603 36.565,90.603 C36.437,90.644 36.308,90.663 36.182,90.663 C35.652,90.663 35.160,90.324 34.990,89.793 C34.778,89.135 35.140,88.430 35.798,88.219 C35.798,88.219 84.302,72.658 84.302,72.658 C84.967,72.449 85.667,72.810 85.878,73.468 C86.090,74.126 85.727,74.831 85.069,75.043 zM83.022,68.670 C83.022,68.670 34.519,84.230 34.519,84.230 C34.392,84.271 34.263,84.290 34.136,84.290 C33.606,84.290 33.114,83.952 32.944,83.421 C32.732,82.763 33.095,82.057 33.753,81.846 C33.753,81.846 82.256,66.286 82.256,66.286 C82.920,66.077 83.620,66.438 83.831,67.096 C84.043,67.754 83.680,68.459 83.022,68.670 zM80.964,62.260 C80.964,62.260 53.738,70.995 53.738,70.995 C53.611,71.036 53.481,71.055 53.355,71.055 C52.825,71.055 52.333,70.717 52.163,70.186 C51.951,69.527 52.314,68.822 52.972,68.611 C52.972,68.611 80.198,59.876 80.198,59.876 C80.862,59.668 81.562,60.028 81.773,60.686 C81.985,61.344 81.622,62.049 80.964,62.260 zM78.919,55.888 C78.919,55.888 51.693,64.623 51.693,64.623 C51.565,64.664 51.436,64.683 51.309,64.683 C50.779,64.683 50.287,64.344 50.117,63.813 C49.905,63.155 50.268,62.450 50.926,62.239 C50.926,62.239 78.152,53.504 78.152,53.504 C78.819,53.293 79.517,53.655 79.727,54.314 C79.939,54.972 79.577,55.677 78.919,55.888 zM76.872,49.516 C76.872,49.516 49.646,58.251 49.646,58.251 C49.518,58.291 49.389,58.310 49.262,58.310 C48.732,58.310 48.240,57.972 48.071,57.441 C47.858,56.783 48.221,56.078 48.879,55.866 C48.879,55.866 76.105,47.131 76.105,47.131 C76.771,46.921 77.470,47.284 77.680,47.941 C77.892,48.599 77.530,49.304 76.872,49.516 zM41.645,73.810 L38.117,74.942 L36.584,70.168 L31.808,71.700 L30.676,68.175 L35.452,66.642 L33.919,61.869 L37.447,60.737 L38.979,65.511 L43.756,63.978 L44.888,67.504 L40.112,69.037 L41.645,73.810 zM38.948,15.886 C40.088,15.521 41.303,15.620 42.371,16.168 C43.437,16.717 44.227,17.647 44.592,18.788 C44.959,19.929 44.859,21.145 44.311,22.211 C43.763,23.277 42.832,24.066 41.689,24.433 C41.238,24.577 40.774,24.649 40.312,24.649 C39.608,24.649 38.910,24.482 38.265,24.151 C37.198,23.603 36.409,22.672 36.043,21.531 C35.676,20.389 35.777,19.173 36.324,18.107 C36.874,17.041 37.805,16.252 38.948,15.886 zM38.427,20.766 C38.590,21.270 38.938,21.681 39.410,21.924 C39.883,22.167 40.421,22.210 40.924,22.048 C40.924,22.048 40.925,22.048 40.925,22.048 C41.430,21.887 41.841,21.538 42.083,21.067 C42.325,20.595 42.370,20.058 42.208,19.553 C42.045,19.048 41.697,18.637 41.226,18.394 C40.940,18.248 40.632,18.174 40.320,18.174 C40.116,18.174 39.911,18.205 39.713,18.270 C39.207,18.432 38.795,18.781 38.552,19.252 C38.310,19.724 38.265,20.261 38.427,20.766 z" fill="#DFE8F1" />
<path id="Ellipse-1" d="M83.500,-0.000 C93.165,-0.000 101.000,7.835 101.000,17.500 C101.000,27.165 93.165,35.000 83.500,35.000 C73.835,35.000 66.000,27.165 66.000,17.500 C66.000,7.835 73.835,-0.000 83.500,-0.000 z" fill="#FFFFFF" />
<path id="Shape-2" d="M93.708,27.724 C90.878,30.554 87.168,31.969 83.459,31.969 C79.751,31.969 76.041,30.554 73.211,27.724 C70.381,24.894 68.966,21.184 68.966,17.476 C68.966,13.767 70.381,10.057 73.211,7.227 C76.041,4.397 79.751,2.982 83.459,2.982 C87.168,2.982 90.878,4.397 93.708,7.227 C96.538,10.057 97.953,13.767 97.953,17.476 C97.953,21.184 96.538,24.894 93.708,27.724 zM91.573,9.362 C89.333,7.122 86.396,6.002 83.459,6.002 C80.523,6.002 77.586,7.122 75.346,9.362 C73.106,11.602 71.986,14.539 71.986,17.476 C71.986,20.412 73.106,23.349 75.346,25.589 C77.586,27.829 80.523,28.949 83.459,28.949 C86.396,28.949 89.333,27.829 91.573,25.589 C93.813,23.349 94.933,20.412 94.933,17.476 C94.933,14.539 93.813,11.602 91.573,9.362 zM88.814,22.830 C88.362,23.282 87.629,23.282 87.177,22.830 C87.177,22.830 83.459,19.112 83.459,19.112 C83.459,19.112 79.741,22.830 79.741,22.830 C79.290,23.282 78.557,23.282 78.105,22.830 C77.653,22.378 77.653,21.645 78.105,21.194 C78.105,21.194 81.823,17.476 81.823,17.476 C81.823,17.476 78.105,13.757 78.105,13.757 C77.653,13.306 77.653,12.573 78.105,12.121 C78.557,11.669 79.290,11.669 79.741,12.121 C79.741,12.121 83.459,15.839 83.459,15.839 C83.459,15.839 87.177,12.121 87.177,12.121 C87.629,11.669 88.362,11.669 88.814,12.121 C89.266,12.573 89.266,13.306 88.814,13.757 C88.814,13.757 85.096,17.476 85.096,17.476 C85.096,17.476 88.814,21.194 88.814,21.194 C89.266,21.645 89.266,22.378 88.814,22.830 z" fill="#E74C3C" />
</g>
</svg>
