<?xml version="1.0" encoding="utf-8"?>
<!-- Generator: Adobe Illustrator 21.0.0, SVG Export Plug-In . SVG Version: 6.00 Build 0)  -->
<svg version="1.1" id="Layer_1" xmlns="http://www.w3.org/2000/svg" xmlns:xlink="http://www.w3.org/1999/xlink" x="0px" y="0px"
	 viewBox="0 0 40 40" style="enable-background:new 0 0 40 40;" xml:space="preserve">
<style type="text/css">
	.st0{fill:#3BD1DF;}
</style>
<path id="Shape-1" class="st0" d="M9.7,39.4c1.8-0.7,3.5-1.8,5.3-2.8c2.8-1.8,6-1.8,8.8,0c1.8,1.1,3.5,1.8,5.3,2.8
	c1.1,0.4,2.5,0.4,3.5-0.4c2.5-1.8,4.2-3.5,6-6c0.7-1.1,0.7-2.1,0.4-3.5c-0.7-1.8-1.8-3.5-2.5-5.3c-1.8-2.8-1.8-6,0-8.8
	c1.1-1.8,1.8-3.5,2.5-5.3c0.3-1.1,0.3-2.5-0.4-3.5c-1.8-2.5-3.5-4.2-6-6c-1.1-0.7-2.1-0.7-3.5-0.4c-1.8,0.7-3.5,1.8-5.3,2.8
	c-2.8,1.8-6,1.8-8.8,0c-1.8-1.1-3.5-1.8-5.3-2.8C8.6,0.1,7.2,0.1,6.2,0.8C4.1,2.5,2,4.6,0.6,7.1c-0.7,1.1-0.7,2.1-0.4,3.5
	c0.7,1.8,1.8,3.5,2.5,5.3c1.8,2.8,1.8,6,0,8.8c-1.1,1.8-1.8,3.5-2.5,5.3c-0.3,1.1-0.3,2.5,0.4,3.5c1.8,2.5,3.5,4.2,6,6
	C7.2,39.8,8.6,40.1,9.7,39.4z"/>
</svg>
