<?xml version="1.0" encoding="utf-8"?>
<!-- Generator: Adobe Illustrator 21.0.0, SVG Export Plug-In . SVG Version: 6.00 Build 0)  -->
<svg version="1.1" id="Layer_1" xmlns="http://www.w3.org/2000/svg" xmlns:xlink="http://www.w3.org/1999/xlink" x="0px" y="0px"
	 viewBox="0 0 200 200" style="enable-background:new 0 0 200 200;" xml:space="preserve">
<style type="text/css">
	.st0{fill:#BCCCD8;}
</style>
<path id="logo" class="st0" d="M52.3,195c8.8-3.9,18-8.3,26.3-13.1c13.6-7.8,29.2-7.8,42.9,0c8.8,4.9,17.5,9.3,26.3,13.1
	c5.8,2.4,11.7,1.9,16.6-1.9c11.2-7.8,20.9-17.5,28.7-28.7c3.4-4.9,3.9-11.2,1.5-17c-3.9-8.8-7.8-17-12.7-25.3
	c-8.3-14.1-8.3-29.7,0-43.8c4.9-8.3,9.3-17,12.7-25.3c2.4-5.8,1.9-11.7-1.5-17c-7.9-12-17.6-21.2-28.8-29
	c-4.9-3.4-11.2-3.9-16.6-1.9c-8.8,3.9-18,8.3-26.3,13.1c-13.6,7.8-29.2,7.8-42.9,0C69.8,13.3,61,8.9,52.3,5
	c-5.9-2.4-11.7-1.9-16.6,2C24.5,14.8,14.8,24.5,7,35.7c-3.4,4.9-3.9,11.2-1.5,17c3.9,8.8,7.8,17,12.7,25.3c8.3,14.1,8.3,29.7,0,43.8
	c-4.9,8.3-9.3,17-12.7,25.3c-2.4,5.8-1.9,11.7,1.5,17c7.8,11.2,17.5,20.9,28.7,28.7C40.6,196.9,46.4,197.4,52.3,195z"/>
</svg>
