<svg version="1.1" xmlns="http://www.w3.org/2000/svg" xmlns:xlink="http://www.w3.org/1999/xlink" width="16" height="16" viewBox="0 0 16 16">
<path id="Shape-2617" d="M7.999,15.999 C3.581,15.999 -0.001,12.417 -0.001,7.999 C-0.001,3.581 3.581,-0.000 7.999,-0.000 C12.417,-0.000 15.998,3.581 15.998,7.999 C15.998,12.417 12.417,15.999 7.999,15.999 C7.999,15.999 7.999,15.999 7.999,15.999 zM3.646,8.694 C3.646,8.694 6.077,11.133 6.077,11.133 C6.463,11.520 7.090,11.522 7.478,11.136 C7.478,11.136 7.481,11.136 7.481,11.136 C7.481,11.136 12.352,6.266 12.352,6.266 C12.739,5.878 12.739,5.250 12.352,4.862 C11.964,4.474 11.335,4.474 10.948,4.862 C10.948,4.862 6.779,9.031 6.779,9.031 C6.779,9.031 5.050,7.297 5.050,7.297 C4.664,6.910 4.037,6.908 3.650,7.294 C3.262,7.679 3.260,8.306 3.646,8.694 z" fill="#72FF00" />
</svg>
