<?xml version="1.0" encoding="utf-8"?>
<!-- Generator: Adobe Illustrator 21.0.0, SVG Export Plug-In . SVG Version: 6.00 Build 0)  -->
<svg version="1.1" id="Layer_1" xmlns="http://www.w3.org/2000/svg" xmlns:xlink="http://www.w3.org/1999/xlink" x="0px" y="0px"
	 viewBox="0 0 112 140" style="enable-background:new 0 0 112 140;" xml:space="preserve">
<style type="text/css">
	.st0{fill:#83E2EB;}
</style>
<path class="st0" d="M65.1,72L58,72l0,7.1c0,1.1-0.9,2-2,2c-1.1,0-2-0.9-2-2l0-7.1l-7.1,0c-1.1,0-2-0.9-2-2c0-1.1,0.9-2,2-2l7.1,0
	l0-7.1c0-1.1,0.9-2,2-2s2,0.9,2,2l0,7.1l7.1,0c1.1,0,2,0.9,2,2C67.1,71.1,66.2,72,65.1,72z"/>
</svg>
