<?xml version="1.0" standalone="no"?>
<!DOCTYPE svg PUBLIC "-//W3C//DTD SVG 20010904//EN"
 "http://www.w3.org/TR/2001/REC-SVG-20010904/DTD/svg10.dtd">
<svg version="1.0" xmlns="http://www.w3.org/2000/svg"
 width="512.000000pt" height="512.000000pt" viewBox="0 0 512.000000 512.000000"
 preserveAspectRatio="xMidYMid meet">
<metadata>
Created by potrace 1.11, written by Peter Selinger 2001-2013
</metadata>
<g transform="translate(0.000000,512.000000) scale(0.100000,-0.100000)"
fill="#000000" stroke="none">
<path d="M1032 5044 c-29 -7 -66 -21 -83 -30 -29 -15 -144 -94 -186 -128 -174
-141 -314 -275 -433 -416 -298 -353 -327 -471 -190 -775 61 -135 197 -404 270
-530 81 -141 115 -224 150 -360 19 -72 24 -118 24 -230 1 -139 -2 -170 -25
-275 -21 -96 -82 -241 -154 -364 -111 -190 -312 -605 -331 -684 -13 -50 -11
-185 3 -231 46 -152 331 -501 588 -717 329 -277 451 -307 736 -183 112 49 451
216 529 260 166 95 319 157 431 174 190 30 315 26 470 -14 71 -18 241 -83 264
-100 66 -51 615 -320 750 -368 67 -24 172 -27 244 -8 88 23 137 50 256 142
190 147 400 356 533 529 162 210 194 282 187 422 -2 42 -6 88 -10 102 -23 77
-208 461 -308 637 -107 189 -152 292 -178 408 -6 28 -13 59 -16 70 -3 11 -6
83 -8 160 -3 149 11 245 55 375 27 79 50 128 166 340 151 276 271 532 294 629
28 119 -6 255 -95 381 -136 192 -368 441 -540 579 -49 39 -97 77 -105 84 -45
36 -139 93 -184 110 -72 28 -195 32 -272 8 -113 -35 -405 -171 -629 -294 -175
-96 -187 -101 -255 -130 -222 -92 -475 -107 -705 -41 -112 31 -176 60 -335
147 -198 110 -465 238 -640 307 -69 28 -193 34 -268 14z"/>
</g>
</svg>
