<?xml version="1.0" encoding="utf-8"?>
<!-- Generator: Adobe Illustrator 21.0.0, SVG Export Plug-In . SVG Version: 6.00 Build 0)  -->
<svg version="1.1" id="Layer_1" xmlns="http://www.w3.org/2000/svg" xmlns:xlink="http://www.w3.org/1999/xlink" x="0px" y="0px"
	 viewBox="0 0 28 28" style="enable-background:new 0 0 28 28;" xml:space="preserve">
<style type="text/css">
	.st0{fill:#FAFCFE;}
</style>
<path id="logo" class="st0" d="M11.2,19.5c0.5-0.2,1-0.5,1.5-0.8c0.8-0.5,1.7-0.5,2.5,0c0.5,0.3,1,0.5,1.5,0.8
	c0.3,0.1,0.7,0.1,1-0.1c0.7-0.5,1.2-1,1.7-1.7c0.2-0.3,0.2-0.6,0.1-1c-0.2-0.5-0.5-1-0.7-1.5c-0.5-0.8-0.5-1.7,0-2.5
	c0.3-0.5,0.5-1,0.7-1.5c0.1-0.3,0.1-0.7-0.1-1c-0.5-0.7-1-1.2-1.7-1.7c-0.3-0.2-0.6-0.2-1-0.1c-0.5,0.2-1,0.5-1.5,0.8
	c-0.8,0.5-1.7,0.5-2.5,0c-0.5-0.3-1-0.5-1.5-0.8c-0.3-0.1-0.7-0.1-1,0.1C9.6,9,9,9.6,8.6,10.3c-0.2,0.3-0.2,0.6-0.1,1
	c0.2,0.5,0.5,1,0.7,1.5c0.5,0.8,0.5,1.7,0,2.5c-0.3,0.5-0.5,1-0.7,1.5c-0.1,0.3-0.1,0.7,0.1,1c0.5,0.7,1,1.2,1.7,1.7
	C10.5,19.6,10.9,19.7,11.2,19.5z"/>
</svg>
