<?xml version="1.0" encoding="utf-8"?>
<!-- Generator: Adobe Illustrator 21.0.0, SVG Export Plug-In . SVG Version: 6.00 Build 0)  -->
<svg version="1.1" id="Layer_1" xmlns="http://www.w3.org/2000/svg" xmlns:xlink="http://www.w3.org/1999/xlink" x="0px" y="0px"
	 viewBox="0 0 60 60" style="enable-background:new 0 0 60 60;" xml:space="preserve">
<style type="text/css">
	.st0{fill:#4ED6E2;}
</style>
<g>
	<path class="st0" d="M30,1c16,0,29,13,29,29S46,59,30,59S1,46,1,30S14,1,30,1 M30,0C13.4,0,0,13.4,0,30s13.4,30,30,30
		s30-13.4,30-30S46.6,0,30,0L30,0z"/>
</g>
<path id="Shape-615" class="st0" d="M23.5,31.1c-0.6-0.6-0.6-1.6,0-2.2c0.6-0.6,1.6-0.6,2.3,0l2.8,2.8l6.7-6.6
	c0.6-0.6,1.6-0.6,2.3,0s0.6,1.6,0,2.2L29.7,35h0c-0.6,0.6-1.6,0.6-2.3,0L23.5,31.1z"/>
</svg>
