<?xml version="1.0" encoding="utf-8"?>
<!-- Generator: Adobe Illustrator 21.0.0, SVG Export Plug-In . SVG Version: 6.00 Build 0)  -->
<svg version="1.1" id="Layer_1" xmlns="http://www.w3.org/2000/svg" xmlns:xlink="http://www.w3.org/1999/xlink" x="0px" y="0px"
	 viewBox="0 0 60 60" style="enable-background:new 0 0 60 60;" xml:space="preserve">
<style type="text/css">
	.st0{fill:#4ED6E2;}
</style>
<g>
	<path class="st0" d="M0,30C0,13.4,13.4,0,30,0s30,13.4,30,30S46.6,60,30,60S0,46.6,0,30z M27.4,35c0.6,0.6,1.6,0.6,2.3,0h0l7.9-7.7
		c0.6-0.6,0.6-1.6,0-2.2s-1.6-0.6-2.3,0l-6.7,6.6l-2.8-2.8c-0.6-0.6-1.6-0.6-2.3,0c-0.6,0.6-0.6,1.6,0,2.2L27.4,35z"/>
</g>
</svg>
