<?xml version="1.0" encoding="utf-8"?>
<!-- Generator: Adobe Illustrator 21.0.0, SVG Export Plug-In . SVG Version: 6.00 Build 0)  -->
<svg version="1.1" id="Layer_1" xmlns="http://www.w3.org/2000/svg" xmlns:xlink="http://www.w3.org/1999/xlink" x="0px" y="0px"
	 viewBox="0 0 40 40" style="enable-background:new 0 0 40 40;" xml:space="preserve">
<style type="text/css">
	.st0{opacity:0.5;}
	.st1{fill:#A8B0B9;}
</style>
<g class="st0">
	<path class="st1" d="M19,20c0-3.9,3.1-7,7-7s7,3.1,7,7s-3.1,7-7,7S19,23.9,19,20z M24.9,20l-1.6,1.7c-0.3,0.3-0.3,0.7,0,1
		c0.3,0.3,0.7,0.3,0.9,0l1.6-1.7l1.6,1.7c0.3,0.3,0.7,0.3,0.9,0c0.3-0.3,0.3-0.7,0-1L26.8,20l1.6-1.7c0.3-0.3,0.3-0.7,0-1
		c-0.3-0.3-0.7-0.3-0.9,0L25.8,19l-1.6-1.7c-0.3-0.3-0.7-0.3-0.9,0c-0.3,0.3-0.3,0.7,0,1L24.9,20z"/>
</g>
</svg>
