<?xml version="1.0" encoding="utf-8"?>
<!-- Generator: Adobe Illustrator 21.0.0, SVG Export Plug-In . SVG Version: 6.00 Build 0)  -->
<svg version="1.1" id="Layer_1" xmlns="http://www.w3.org/2000/svg" xmlns:xlink="http://www.w3.org/1999/xlink" x="0px" y="0px"
	 viewBox="0 0 97 97" style="enable-background:new 0 0 97 97;" xml:space="preserve">
<style type="text/css">
	.st0{fill:#A8B0B9;}
</style>
<path id="searchIcon" class="st0" d="M67.6,67.6c-1.2,1.2-3.1,1.2-4.3,0l-8-8c-2.7,1.8-6,2.9-9.6,2.9c-4.7,0-9-1.9-12.2-5l0,0
	c-3.1-3.1-5-7.3-5-12c0-4.7,1.9-8.9,5-12l0,0c3.1-3.1,7.4-5,12.1-5c4.7,0,9,1.9,12.1,5l0,0c3.1,3.1,5,7.3,5,12
	c0,3.7-1.2,7.1-3.2,9.9l8,7.9C68.8,64.5,68.8,66.4,67.6,67.6z M53.5,37.8L53.5,37.8c-2-2-4.8-3.2-7.8-3.2c-3.1,0-5.8,1.2-7.8,3.2
	l0,0c-2,2-3.2,4.7-3.2,7.8c0,3,1.2,5.8,3.2,7.8h0c2,2,4.8,3.2,7.8,3.2c3.1,0,5.8-1.2,7.8-3.2c2-2,3.2-4.7,3.2-7.8
	C56.7,42.5,55.5,39.7,53.5,37.8z"/>
</svg>
