<?xml version="1.0" encoding="utf-8"?>
<!-- Generator: Adobe Illustrator 21.0.0, SVG Export Plug-In . SVG Version: 6.00 Build 0)  -->
<svg version="1.1" id="Layer_1" xmlns="http://www.w3.org/2000/svg" xmlns:xlink="http://www.w3.org/1999/xlink" x="0px" y="0px"
	 viewBox="0 0 112 140" style="enable-background:new 0 0 112 140;" xml:space="preserve">
<style type="text/css">
	.st0{fill-rule:evenodd;clip-rule:evenodd;fill:#83E2EB;}
</style>
<path class="st0" d="M2.5,13.3c0,0.7-0.6,1.2-1.3,1.2c-0.7,0-1.2-0.6-1.2-1.3C0.1,11.2,0.5,9.5,1.1,8C1.8,6.5,2.8,5.1,4,4
	c1.2-1.1,2.5-1.9,3.9-2.5c1.4-0.6,3-0.9,4.7-0.9c0.7,0,1.2,0.5,1.3,1.2c0,0.7-0.5,1.2-1.2,1.3c-1.4,0-2.7,0.3-3.8,0.7
	c-1.1,0.5-2.2,1.1-3.1,2l0,0C4.7,6.7,3.9,7.7,3.4,9C2.9,10.2,2.5,11.7,2.5,13.3z"/>
<path class="st0" d="M112,13.2c0,0.7-0.5,1.3-1.2,1.3c-0.7,0-1.3-0.5-1.3-1.2c-0.1-1.6-0.4-3.1-0.9-4.3c-0.5-1.2-1.3-2.3-2.3-3.2
	l0,0c-0.9-0.9-2-1.6-3.1-2c-1.2-0.5-2.4-0.7-3.8-0.7c-0.7,0-1.2-0.6-1.2-1.3c0-0.7,0.6-1.2,1.3-1.2c1.7,0,3.3,0.4,4.7,0.9
	c1.4,0.6,2.8,1.4,3.9,2.5c1.2,1.1,2.2,2.5,2.9,4C111.5,9.5,111.9,11.2,112,13.2z"/>
<path class="st0" d="M0,126.8c0-0.7,0.5-1.3,1.2-1.3c0.7,0,1.3,0.5,1.3,1.2c0.1,1.6,0.4,3.1,0.9,4.3c0.5,1.2,1.3,2.3,2.3,3.2l0,0
	c0.9,0.9,2,1.6,3.1,2c1.2,0.5,2.4,0.7,3.8,0.7c0.7,0,1.2,0.6,1.2,1.3c0,0.7-0.6,1.2-1.3,1.2c-1.7,0-3.3-0.4-4.7-0.9
	c-1.4-0.6-2.8-1.4-3.9-2.5c-1.2-1.1-2.2-2.5-2.9-4C0.5,130.5,0.1,128.8,0,126.8z"/>
<path class="st0" d="M109.5,126.7c0-0.7,0.6-1.2,1.3-1.2c0.7,0,1.2,0.6,1.2,1.3c-0.1,1.9-0.5,3.6-1.1,5.2c-0.7,1.5-1.6,2.9-2.9,4
	c-1.2,1.1-2.5,1.9-3.9,2.5c-1.4,0.6-3,0.9-4.7,0.9c-0.7,0-1.2-0.5-1.3-1.2c0-0.7,0.5-1.2,1.2-1.3c1.4,0,2.7-0.3,3.8-0.7
	c1.2-0.5,2.2-1.1,3.1-2l0,0c1-0.9,1.7-1.9,2.3-3.2C109.1,129.8,109.4,128.3,109.5,126.7z"/>
<path class="st0" d="M0,25.8c0-0.7,0.6-1.2,1.2-1.2s1.2,0.6,1.2,1.2v11.9c0,0.7-0.6,1.2-1.2,1.2S0,38.4,0,37.8V25.8z"/>
<path class="st0" d="M0,48.9c0-0.7,0.6-1.2,1.2-1.2s1.2,0.6,1.2,1.2v11.9c0,0.7-0.6,1.2-1.2,1.2S0,61.5,0,60.8V48.9z"/>
<path class="st0" d="M0,76.3c0-0.7,0.6-1.2,1.2-1.2s1.2,0.6,1.2,1.2v11.9c0,0.7-0.6,1.2-1.2,1.2S0,88.9,0,88.2V76.3z"/>
<path class="st0" d="M0,103.8c0-0.7,0.6-1.2,1.2-1.2s1.2,0.6,1.2,1.2v11.9c0,0.7-0.6,1.2-1.2,1.2S0,116.4,0,115.7V103.8z"/>
<path class="st0" d="M109.5,25.8c0-0.7,0.6-1.2,1.2-1.2c0.7,0,1.2,0.6,1.2,1.2v11.9c0,0.7-0.6,1.2-1.2,1.2c-0.7,0-1.2-0.6-1.2-1.2
	V25.8z"/>
<path class="st0" d="M109.5,48.9c0-0.7,0.6-1.2,1.2-1.2c0.7,0,1.2,0.6,1.2,1.2v11.9c0,0.7-0.6,1.2-1.2,1.2c-0.7,0-1.2-0.6-1.2-1.2
	V48.9z"/>
<path class="st0" d="M109.5,76.3c0-0.7,0.6-1.2,1.2-1.2c0.7,0,1.2,0.6,1.2,1.2v11.9c0,0.7-0.6,1.2-1.2,1.2c-0.7,0-1.2-0.6-1.2-1.2
	V76.3z"/>
<path class="st0" d="M109.5,103.8c0-0.7,0.6-1.2,1.2-1.2c0.7,0,1.2,0.6,1.2,1.2v11.9c0,0.7-0.6,1.2-1.2,1.2c-0.7,0-1.2-0.6-1.2-1.2
	V103.8z"/>
<path class="st0" d="M50,139.4c-0.7,0-1.2-0.6-1.2-1.2c0-0.7,0.6-1.2,1.2-1.2H62c0.7,0,1.2,0.6,1.2,1.2c0,0.7-0.6,1.2-1.2,1.2H50z"
	/>
<path class="st0" d="M75.7,139.4c-0.7,0-1.2-0.6-1.2-1.2c0-0.7,0.6-1.2,1.2-1.2h11.9c0.7,0,1.2,0.6,1.2,1.2c0,0.7-0.6,1.2-1.2,1.2
	H75.7z"/>
<path class="st0" d="M24.5,139.4c-0.7,0-1.2-0.6-1.2-1.2c0-0.7,0.6-1.2,1.2-1.2h11.9c0.7,0,1.2,0.6,1.2,1.2c0,0.7-0.6,1.2-1.2,1.2
	H24.5z"/>
<path class="st0" d="M50,3c-0.7,0-1.2-0.6-1.2-1.2s0.6-1.2,1.2-1.2H62c0.7,0,1.2,0.6,1.2,1.2S62.6,3,62,3H50z"/>
<path class="st0" d="M75.7,3c-0.7,0-1.2-0.6-1.2-1.2s0.6-1.2,1.2-1.2h11.9c0.7,0,1.2,0.6,1.2,1.2S88.3,3,87.6,3H75.7z"/>
<path class="st0" d="M24.5,3c-0.7,0-1.2-0.6-1.2-1.2s0.6-1.2,1.2-1.2h11.9c0.7,0,1.2,0.6,1.2,1.2S37.1,3,36.4,3H24.5z"/>
</svg>
