<?xml version="1.0" encoding="utf-8"?>
<!-- Generator: Adobe Illustrator 21.0.0, SVG Export Plug-In . SVG Version: 6.00 Build 0)  -->
<svg version="1.1" id="Layer_1" xmlns="http://www.w3.org/2000/svg" xmlns:xlink="http://www.w3.org/1999/xlink" x="0px" y="0px"
	 viewBox="0 0 12 17" style="enable-background:new 0 0 12 17;" xml:space="preserve">
<style type="text/css">
	.st0{fill:#2DC1DD;}
</style>
<path id="userIcon" class="st0" d="M11.9,14.5c-1.7,1-3.8,1.7-6,1.7c-2.1,0-4.1-0.6-5.8-1.6C0,14.2,0,13.8,0,13.4
	c0-1.8,0.8-3.4,2.1-4.5c0.4-0.4,1-0.4,1.5-0.1C4.3,9.1,5.1,9.4,6,9.4c0.9,0,1.7-0.2,2.5-0.7c0.5-0.3,1-0.2,1.5,0.1
	c1.3,1.1,2.1,2.7,2.1,4.5C12,13.7,12,14.1,11.9,14.5z M6,7.9c-1.9,0-3.5-1.6-3.5-3.5c0-1.9,1.6-3.5,3.5-3.5s3.5,1.6,3.5,3.5
	C9.5,6.3,7.9,7.9,6,7.9z"/>
</svg>
