<svg version="1.1" xmlns="http://www.w3.org/2000/svg" xmlns:xlink="http://www.w3.org/1999/xlink" width="1413" height="1254" viewBox="0 0 1413 1254">
<path id="logo-copy-2" d="M1406.631,736.744 C1396.494,750.331 1385.261,763.583 1373.088,776.464 C1352.988,797.659 1346.259,825.937 1354.655,853.932 C1359.805,870.875 1363.793,887.759 1366.706,904.534 C1368.618,915.636 1365.046,926.018 1356.710,933.574 C1337.913,950.527 1316.958,963.588 1293.721,972.653 C1283.353,976.714 1272.593,975.321 1263.577,968.764 C1249.318,958.312 1235.498,946.937 1222.343,934.619 C1201.377,915.005 1173.854,908.436 1146.308,916.473 C1129.019,921.525 1111.616,925.522 1094.130,928.323 C1083.129,930.103 1072.846,926.401 1065.404,918.163 C1048.833,899.523 1035.942,878.385 1026.852,854.850 C1022.815,844.340 1024.302,833.462 1031.009,824.416 C1041.146,810.829 1052.379,797.577 1064.552,784.696 C1084.652,763.502 1091.381,735.224 1082.985,707.228 C1077.834,690.286 1073.847,673.402 1070.934,656.626 C1069.022,645.524 1072.594,635.142 1080.929,627.587 C1099.726,610.633 1120.682,597.573 1143.919,588.507 C1154.287,584.447 1165.047,585.839 1174.063,592.397 C1188.322,602.849 1202.141,614.224 1215.297,626.541 C1236.263,646.156 1263.786,652.725 1291.332,644.688 C1308.621,639.636 1326.024,635.639 1343.510,632.838 C1354.511,631.057 1364.741,634.674 1372.166,642.980 C1388.807,661.636 1401.645,682.690 1410.787,706.311 C1414.825,716.820 1413.338,727.698 1406.631,736.744 zM1057.146,220.215 C1052.235,225.713 1045.465,228.107 1038.181,226.931 C1026.637,225.022 1015.078,222.436 1003.629,219.095 C985.387,213.781 967.170,218.130 953.301,231.112 C944.599,239.265 935.514,246.828 926.023,253.711 C920.058,258.051 912.879,258.939 906.023,256.300 C890.668,250.247 876.741,241.617 864.343,230.436 C858.820,225.437 856.449,218.568 857.708,211.221 C859.637,200.166 862.313,188.982 865.655,177.735 C871.197,159.210 866.725,140.498 853.404,126.476 C845.302,118.011 837.904,109.232 831.173,100.196 C826.727,94.211 825.736,87.012 828.403,80.058 C834.440,64.427 842.917,50.448 853.933,38.146 C858.844,32.649 865.614,30.254 872.899,31.431 C884.442,33.340 896.001,35.926 907.450,39.267 C925.692,44.582 943.909,40.232 957.778,27.250 C966.480,19.097 975.565,11.534 985.056,4.651 C991.021,0.310 998.144,-0.612 1005.010,2.073 C1020.411,8.115 1034.281,16.710 1046.736,27.926 C1052.260,32.924 1054.630,39.794 1053.371,47.141 C1051.442,58.196 1048.766,69.380 1045.424,80.626 C1039.883,99.153 1044.355,117.864 1057.675,131.886 C1065.777,140.352 1073.176,149.131 1079.906,158.166 C1084.352,164.151 1085.343,171.349 1082.677,178.304 C1076.638,193.936 1068.163,207.914 1057.146,220.215 zM601.492,853.981 C591.053,868.830 575.174,876.618 557.017,875.819 C528.229,874.443 499.209,871.417 470.242,866.512 C424.091,858.717 380.768,874.554 350.556,910.265 C331.602,932.688 311.542,953.781 290.294,973.324 C276.942,985.641 259.632,989.862 242.104,985.362 C202.805,974.937 166.260,957.805 132.726,933.994 C117.780,923.342 110.013,907.217 110.989,888.887 C112.542,861.297 115.885,833.177 120.841,804.715 C129.091,757.821 112.791,713.330 76.186,682.832 C53.939,664.439 33.324,645.077 14.270,624.896 C1.679,611.526 -2.808,594.201 1.724,576.431 C12.018,536.474 28.751,499.864 52.179,466.632 C62.619,451.784 78.498,443.995 96.655,444.796 C125.443,446.172 154.464,449.197 183.430,454.103 C229.582,461.897 272.904,446.060 303.116,410.349 C322.070,387.926 342.130,366.833 363.378,347.291 C376.729,334.972 393.890,330.682 411.458,335.291 C450.867,345.676 487.262,362.740 520.947,386.620 C535.891,397.271 543.659,413.396 542.683,431.726 C541.130,459.316 537.787,487.436 532.831,515.898 C524.581,562.793 540.881,607.284 577.486,637.781 C599.733,656.175 620.348,675.537 639.402,695.717 C651.993,709.087 656.480,726.411 651.948,744.183 C641.652,784.141 624.921,820.750 601.492,853.981 zM464.074,232.196 C460.251,233.027 456.340,233.649 452.370,234.024 C446.045,234.623 440.922,238.222 438.215,243.966 C436.518,247.572 434.629,251.042 432.530,254.351 C431.212,256.435 429.091,257.597 426.634,257.622 C421.116,257.636 415.722,256.673 410.489,254.730 C408.155,253.858 406.570,252.016 406.054,249.579 C405.288,245.907 404.739,242.102 404.389,238.196 C403.823,231.757 400.123,226.496 394.252,223.783 C390.689,222.153 387.306,220.339 384.098,218.362 C381.978,217.051 380.781,214.937 380.751,212.448 C380.696,206.847 381.604,201.459 383.508,196.279 C384.355,193.965 386.164,192.386 388.572,191.853 C392.395,191.022 396.306,190.399 400.277,190.025 C406.601,189.426 411.725,185.827 414.431,180.083 C416.129,176.477 418.018,173.007 420.117,169.698 C421.435,167.614 423.534,166.448 425.999,166.435 C431.531,166.413 436.902,167.371 442.158,169.319 C444.491,170.191 446.076,172.032 446.592,174.470 C447.358,178.142 447.908,181.946 448.258,185.853 C448.824,192.291 452.524,197.552 458.395,200.265 C461.958,201.895 465.341,203.710 468.548,205.686 C470.669,206.997 471.866,209.111 471.896,211.601 C471.950,217.202 471.042,222.590 469.138,227.770 C468.291,230.084 466.483,231.663 464.074,232.196 zM408.619,1144.554 C415.149,1141.476 422.024,1138.743 429.178,1136.338 C440.975,1132.394 449.163,1123.112 451.606,1110.909 C453.059,1103.510 454.938,1096.365 457.198,1089.476 C458.701,1084.920 462.120,1081.733 466.766,1080.562 C477.225,1077.951 487.718,1077.236 498.269,1078.479 C502.980,1079.029 506.747,1081.705 508.825,1085.975 C512.095,1092.758 515.016,1099.799 517.498,1107.062 C521.458,1118.631 530.492,1126.609 542.458,1129.101 C549.969,1130.663 557.312,1132.644 564.448,1135.090 C568.940,1136.623 572.063,1140.030 573.194,1144.638 C575.718,1154.981 576.334,1165.464 575.046,1176.173 C574.462,1180.931 571.726,1184.722 567.395,1186.780 C560.865,1189.858 553.990,1192.591 546.836,1194.997 C535.038,1198.940 526.851,1208.223 524.407,1220.426 C522.954,1227.825 521.076,1234.970 518.815,1241.858 C517.313,1246.414 513.893,1249.601 509.247,1250.773 C498.788,1253.383 488.295,1254.098 477.745,1252.855 C473.034,1252.306 469.267,1249.629 467.188,1245.359 C463.918,1238.577 460.997,1231.535 458.515,1224.272 C454.556,1212.703 445.521,1204.726 433.556,1202.233 C426.044,1200.672 418.701,1198.691 411.566,1196.244 C407.073,1194.711 403.947,1191.262 402.797,1186.676 C400.295,1176.353 399.677,1165.827 400.968,1155.162 C401.552,1150.403 404.288,1146.612 408.619,1144.554 zM963.499,1059.545 C967.531,1056.794 969.629,1052.417 969.248,1047.554 C969.022,1044.604 968.957,1041.703 969.069,1038.875 C969.150,1036.996 970.100,1035.428 971.728,1034.488 C975.397,1032.384 979.275,1031.001 983.396,1030.328 C985.232,1030.031 986.940,1030.636 988.180,1032.023 C990.155,1034.225 991.994,1036.572 993.706,1039.045 C996.437,1042.983 1000.699,1045.022 1005.481,1044.680 C1008.482,1044.464 1011.471,1044.440 1014.420,1044.582 C1016.279,1044.679 1017.822,1045.629 1018.741,1047.245 C1020.804,1050.864 1022.151,1054.761 1022.808,1058.937 C1023.096,1060.793 1022.469,1062.516 1021.054,1063.756 C1018.913,1065.627 1016.621,1067.399 1014.172,1069.056 C1010.141,1071.807 1008.042,1076.184 1008.423,1081.047 C1008.650,1083.998 1008.715,1086.898 1008.602,1089.727 C1008.522,1091.605 1007.572,1093.173 1005.943,1094.113 C1002.291,1096.212 998.396,1097.601 994.287,1098.278 C992.455,1098.565 990.732,1097.965 989.491,1096.578 C987.516,1094.377 985.678,1092.029 983.965,1089.557 C981.235,1085.619 976.973,1083.579 972.191,1083.921 C969.189,1084.137 966.200,1084.161 963.251,1084.019 C961.392,1083.922 959.850,1082.973 958.931,1081.356 C956.868,1077.737 955.521,1073.840 954.863,1069.665 C954.575,1067.808 955.203,1066.085 956.618,1064.846 C958.759,1062.975 961.050,1061.203 963.499,1059.545 z" fill="#FAFCFE" opacity="0.102" />
</svg>
