<svg version="1.1" xmlns="http://www.w3.org/2000/svg" xmlns:xlink="http://www.w3.org/1999/xlink" width="13" height="13" viewBox="0 0 13 13">
<path id="addIcon" d="M5.340,1.180 C5.341,0.528 5.872,0.001 6.524,0.003 C7.176,0.004 7.704,0.534 7.702,1.187 C7.702,1.187 7.686,5.322 7.686,5.322 C7.686,5.322 11.816,5.309 11.816,5.309 C12.468,5.307 12.998,5.835 13.000,6.487 C13.002,7.139 12.475,7.670 11.822,7.671 C11.822,7.671 7.678,7.684 7.678,7.684 C7.678,7.684 7.669,11.825 7.669,11.825 C7.667,12.477 7.137,13.004 6.485,13.003 C5.832,13.001 5.305,12.471 5.306,11.818 C5.306,11.818 5.316,7.692 5.316,7.692 C5.316,7.692 1.184,7.704 1.184,7.704 C0.532,7.706 0.002,7.179 -0.000,6.526 C-0.002,5.874 0.526,5.344 1.178,5.342 C1.178,5.342 5.323,5.329 5.323,5.329 C5.323,5.329 5.340,1.180 5.340,1.180 z" fill="#4ED6E2" />
</svg>
