<?xml version="1.0" encoding="utf-8"?>
<!-- Generator: Adobe Illustrator 21.0.0, SVG Export Plug-In . SVG Version: 6.00 Build 0)  -->
<svg version="1.1" id="Layer_1" xmlns="http://www.w3.org/2000/svg" xmlns:xlink="http://www.w3.org/1999/xlink" x="0px" y="0px"
	 viewBox="0 0 14 14" style="enable-background:new 0 0 14 14;" xml:space="preserve">
<style type="text/css">
	.st0{fill:#A8B0B9;}
</style>
<path id="clearTextIcon" class="st0" d="M5.4,6c-0.2-0.2-0.2-0.4,0-0.6c0.2-0.2,0.4-0.2,0.6,0l1,1l1-1c0.2-0.2,0.4-0.2,0.6,0
	c0.2,0.2,0.2,0.4,0,0.6l-1,1l1,1c0.2,0.2,0.2,0.4,0,0.6C8.4,8.8,8.2,8.8,8,8.6l-1-1l-1,1c-0.2,0.2-0.4,0.2-0.6,0
	C5.2,8.4,5.2,8.2,5.4,8l1-1L5.4,6z"/>
</svg>
