<svg version="1.1" xmlns="http://www.w3.org/2000/svg" xmlns:xlink="http://www.w3.org/1999/xlink" width="26" height="18" viewBox="0 0 26 18">
<path id="Shape-2697" d="M24.734,16.557 C23.955,17.338 22.875,17.823 21.689,17.823 C21.689,17.823 4.310,17.823 4.310,17.823 C3.128,17.823 2.052,17.338 1.271,16.557 C1.271,16.557 1.264,16.551 1.264,16.551 C0.484,15.769 -0.000,14.693 -0.000,13.509 C-0.000,13.509 -0.000,4.490 -0.000,4.490 C-0.000,3.306 0.484,2.229 1.264,1.448 C1.264,1.448 1.271,1.442 1.271,1.442 C2.052,0.661 3.128,0.176 4.310,0.176 C4.310,0.176 21.689,0.176 21.689,0.176 C22.872,0.176 23.947,0.661 24.728,1.442 C24.728,1.442 24.734,1.448 24.734,1.448 C25.514,2.229 25.999,3.306 25.999,4.490 C25.999,4.490 25.999,13.509 25.999,13.509 C25.999,14.698 25.514,15.776 24.734,16.557 C24.734,16.557 24.734,16.557 24.734,16.557 zM18.307,8.374 C18.458,8.374 18.685,8.297 18.760,8.146 C19.064,7.843 19.064,7.463 18.760,7.160 C15.501,3.897 10.271,3.897 7.011,7.160 C6.707,7.463 6.707,7.843 7.011,8.146 C7.314,8.450 7.693,8.450 7.996,8.146 C10.725,5.491 15.122,5.491 17.851,8.146 C18.003,8.297 18.154,8.374 18.307,8.374 C18.307,8.374 18.307,8.374 18.307,8.374 zM16.790,9.209 C14.667,7.084 11.256,7.084 9.133,9.209 C8.830,9.512 8.830,9.891 9.133,10.195 C9.437,10.498 9.816,10.498 10.119,10.195 C11.711,8.601 14.289,8.601 15.880,10.195 C15.956,10.347 16.108,10.422 16.335,10.422 C16.487,10.422 16.714,10.347 16.790,10.195 C17.093,9.891 17.093,9.512 16.790,9.209 C16.790,9.209 16.790,9.209 16.790,9.209 zM14.743,11.181 C13.758,10.195 12.090,10.195 11.104,11.181 C10.801,11.485 10.801,11.864 11.104,12.168 C11.407,12.471 11.786,12.471 12.090,12.168 C12.545,11.712 13.302,11.712 13.834,12.168 C13.909,12.319 14.136,12.395 14.289,12.395 C14.440,12.395 14.667,12.319 14.743,12.168 C15.046,11.864 15.046,11.485 14.743,11.181 z" fill="#4ED6E2" />
</svg>
