<svg version="1.1" xmlns="http://www.w3.org/2000/svg" xmlns:xlink="http://www.w3.org/1999/xlink" width="16" height="16" viewBox="0 0 16 16">
<path id="Shape-2616-copy" d="M7.999,15.999 C3.581,15.999 -0.001,12.417 -0.001,7.999 C-0.001,3.581 3.581,-0.000 7.999,-0.000 C12.417,-0.000 15.998,3.581 15.998,7.999 C15.998,12.417 12.417,15.999 7.999,15.999 C7.999,15.999 7.999,15.999 7.999,15.999 zM8.992,8.692 C8.992,8.692 8.992,3.971 8.992,3.971 C8.992,3.428 8.547,2.987 7.999,2.987 C7.450,2.987 7.006,3.428 7.006,3.971 C7.006,3.971 7.006,8.692 7.006,8.692 C7.006,9.236 7.450,9.676 7.999,9.676 C8.547,9.676 8.992,9.236 8.992,8.692 C8.992,8.692 8.992,8.692 8.992,8.692 zM8.992,12.013 C8.992,12.013 8.992,11.943 8.992,11.943 C8.992,11.400 8.547,10.960 7.999,10.960 C7.450,10.960 7.006,11.400 7.006,11.943 C7.006,11.943 7.006,12.013 7.006,12.013 C7.006,12.557 7.450,12.997 7.999,12.997 C8.547,12.997 8.992,12.557 8.992,12.013 z" fill="#E74C3C" />
</svg>
